<?xml version="1.0" encoding="utf-8"?>
<!-- Generator: Adobe Illustrator 17.1.0, SVG Export Plug-In . SVG Version: 6.00 Build 0)  -->
<!DOCTYPE svg PUBLIC "-//W3C//DTD SVG 1.1//EN" "http://www.w3.org/Graphics/SVG/1.1/DTD/svg11.dtd">
<svg version="1.1" id="Layer_1" xmlns="http://www.w3.org/2000/svg" xmlns:xlink="http://www.w3.org/1999/xlink" x="0px" y="0px"
	 viewBox="0 0 800 800" enable-background="new 0 0 800 800" xml:space="preserve">
<polygon fill="#0B88CA" stroke="#FFFFFF" stroke-width="10" stroke-miterlimit="10" points="288.9,0 0,200.8 0,369 530.6,0 "/>
<g>
	<path fill="#FFFFFF" d="M49.1,213.7l13.6-9.4c6.4-4.4,11.7-6.7,15.8-6.7c4.2-0.1,7.7,2,10.6,6.1c2,2.9,2.8,5.8,2.5,8.7
		c-0.3,3-1.8,5.8-4.5,8.4l0.2,0.3c8.2-3.8,14.5-2.5,18.9,3.9c3,4.3,3.9,8.7,2.6,13.1c-1.2,4.4-4.5,8.5-9.7,12.1l-16.8,11.6
		L49.1,213.7z M69,230.4l9.2-6.4c3.9-2.7,6.4-5.3,7.2-7.8c0.9-2.4,0.3-5.1-1.7-8.1c-1.9-2.7-4.2-4-6.9-3.8
		c-2.8,0.1-6.2,1.7-10.5,4.6l-8.2,5.7L69,230.4z M72.2,235.1l12.5,18l10-7c3.9-2.7,6.3-5.5,7.2-8.3c0.9-2.9,0.3-5.9-2-9.1
		c-2.1-3-4.6-4.5-7.6-4.5c-3,0-6.5,1.4-10.6,4.2L72.2,235.1z"/>
	<path fill="#FFFFFF" d="M129.1,158.2l21.6,31.1c3.8,5.5,5.1,10.9,4,16.4c-1.1,5.4-4.6,10.2-10.4,14.2s-11.4,5.5-16.7,4.6
		c-5.4-1-10-4.2-13.8-9.7l-21.5-31l5.6-3.9l21.8,31.4c2.8,4,6,6.3,9.7,7c3.7,0.6,7.7-0.5,11.9-3.5c4.1-2.8,6.4-6.1,7.1-9.7
		c0.7-3.7-0.4-7.5-3.2-11.6l-21.7-31.3L129.1,158.2z"/>
	<path fill="#FFFFFF" d="M170.7,164.9l-3.9-32.9l6.1-4.2l4.4,40.6l12.9,18.7l-5.7,3.9l-12.8-18.4L135.2,154l6.1-4.2L170.7,164.9z"/>
	<path fill="#FFFFFF" d="M251.7,144.4l-45.9-31.3l-0.3,0.2c2.7,3.2,5.6,7.1,8.8,11.7l21.2,30.6l-5.2,3.6L197,111.1l8.4-5.8
		l42.8,29.1l0.3-0.2l-12.2-50.3l8.4-5.8l33.4,48.1l-5.6,3.9l-21.5-31c-2.5-3.6-5-7.5-7.6-11.9l-0.3,0.2l13.1,54L251.7,144.4z"/>
	<path fill="#FFFFFF" d="M318,98.4L291.2,117l-33.4-48.1l26.8-18.6l3.4,5l-21.2,14.7l10.7,15.5l19.9-13.8l3.4,4.9l-19.9,13.8
		l12.3,17.7l21.2-14.7L318,98.4z"/>
	<path fill="#FFFFFF" d="M324.7,88.6c-2.1-3-1.8-5.4,0.8-7.2c1.3-0.9,2.5-1.2,3.7-0.9c1.2,0.3,2.3,1.2,3.3,2.6c1,1.4,1.4,2.7,1.2,4
		c-0.2,1.3-0.9,2.3-2.1,3.2c-1.1,0.8-2.3,1.1-3.5,0.9C326.9,91.1,325.8,90.2,324.7,88.6z M323.6,74.9l-3.5,2.4l-25.8-33.7l6.8-4.7
		L323.6,74.9z"/>
</g>
</svg>
